#N canvas 0 29 1438 419 10;
#X obj 85 39 loadbang;
#X msg 85 66 open /dev/video0;
#X obj 296 56 tgl 15 0 empty empty empty 17 7 0 10 -262144 -1 -1 0
1;
#X obj 298 91 metro 1000;
#X msg 355 38 40;
#X floatatom 357 65 5 0 0 0 - - -;
#X msg 211 153 dim 640 480;
#X obj 53 71 bng 15 250 50 0 empty empty empty 17 7 0 10 -262144 -1
-1;
#X msg 416 37 1000;
#X msg 386 38 200;
#X obj 88 106 pdp_v4l_hack;
#X obj 76 215 print;
#X msg 195 240 dim 640 480;
#X obj 87 164 pdp_glx;
#X msg 205 202 display :0;
#X msg 216 126 dim 320 241;
#X connect 0 0 1 0;
#X connect 1 0 10 0;
#X connect 2 0 3 0;
#X connect 3 0 10 0;
#X connect 4 0 5 0;
#X connect 5 0 3 1;
#X connect 6 0 10 0;
#X connect 7 0 10 0;
#X connect 8 0 5 0;
#X connect 9 0 5 0;
#X connect 10 0 13 0;
#X connect 12 0 13 0;
#X connect 14 0 13 0;
#X connect 15 0 10 0;
